<?xml version="1.0" encoding="UTF-8"?>
<svg id="_Слой_1" data-name="Слой_1" xmlns="http://www.w3.org/2000/svg" version="1.1" viewBox="0 0 500.63 99.21">
  <!-- Generator: Adobe Illustrator 29.8.1, SVG Export Plug-In . SVG Version: 2.1.1 Build 2)  -->
  <defs>
    <style>
      .st0 {
        fill: #a50034;
      }

      .st1 {
        fill: #fff;
      }
    </style>
  </defs>
  <path class="st1" d="M135.16,68.93h30.47v12.49h-45.17V17.27h14.7v51.66Z"/>
  <path class="st1" d="M197.96,56.97h11.97v11.23c-2.2.84-6.51,1.69-10.6,1.69-13.24,0-17.64-6.78-17.64-20.54s4.19-20.86,17.42-20.86c7.37,0,11.56,2.33,15.03,6.78l9.15-8.47c-5.59-8.03-15.33-10.46-24.49-10.46-20.58,0-31.4,11.31-31.4,32.9s9.78,33.14,31.29,33.14c9.88,0,19.53-2.53,24.79-6.25v-31.12h-25.51v11.96Z"/>
  <path class="st0" d="M84.01,84.69c19.22-19.37,19.22-50.78,0-70.16-19.22-19.37-50.38-19.37-69.6,0-19.22,19.37-19.22,50.78,0,70.16,19.22,19.37,50.38,19.37,69.6,0Z"/>
  <path class="st1" d="M61.25,66.75h-10.06V28.66h-3.72v41.85h3.73v-.03h10.06v-3.73Z"/>
  <path class="st1" d="M86.33,51.18h-25.03v-3.74h28.69c.04.72.06,1.45.06,2.18,0,22.5-18.19,40.74-40.63,40.74S8.8,72.14,8.8,49.62,26.99,8.88,49.43,8.88c.59,0,1.18.01,1.77.04v3.71c-.59-.03-1.17-.04-1.76-.04-20.39,0-36.93,16.58-36.93,37.03s16.54,37.04,36.93,37.04,36.04-15.69,36.9-35.37v-.1Z"/>
  <path class="st1" d="M34.28,39.94c1.12,0,2.22-.35,3.15-.98.93-.63,1.65-1.53,2.08-2.58.43-1.05.53-2.2.31-3.31-.22-1.11-.77-2.13-1.56-2.92-.8-.8-1.81-1.34-2.91-1.56-1.1-.22-2.24-.1-3.28.33-1.04.43-1.92,1.17-2.54,2.11-.62.94-.96,2.05-.96,3.18,0,.75.15,1.5.44,2.2.29.7.71,1.33,1.24,1.86.53.53,1.16.95,1.85,1.24.69.29,1.43.43,2.18.43Z"/>
  <g>
    <path class="st1" d="M248.59,41.67v-22.17h9.42c2.37,0,4.09.2,5.17.6,1.07.4,1.93,1.11,2.58,2.12.64,1.02.97,2.18.97,3.49,0,1.66-.49,3.04-1.47,4.12-.98,1.08-2.44,1.77-4.39,2.05.97.56,1.77,1.19,2.4,1.86.63.68,1.48,1.88,2.55,3.6l2.71,4.33h-5.35l-3.24-4.83c-1.15-1.72-1.94-2.81-2.36-3.26-.42-.45-.87-.76-1.35-.92s-1.23-.25-2.25-.25h-.91v9.26h-4.48ZM253.06,28.87h3.31c2.15,0,3.49-.09,4.02-.27.53-.18.95-.49,1.25-.94.3-.44.45-1,.45-1.66,0-.75-.2-1.35-.6-1.81s-.96-.75-1.69-.87c-.36-.05-1.45-.08-3.27-.08h-3.49v5.63Z"/>
    <path class="st1" d="M270.94,41.67v-22.17h16.44v3.75h-11.96v4.92h11.13v3.74h-11.13v6.04h12.39v3.74h-16.87Z"/>
    <path class="st1" d="M291.63,41.67v-22.17h15.2v3.75h-10.72v5.25h9.26v3.75h-9.26v9.42h-4.48Z"/>
    <path class="st1" d="M310.54,41.67v-22.17h9.42c2.37,0,4.09.2,5.17.6,1.07.4,1.93,1.11,2.58,2.12.64,1.02.97,2.18.97,3.49,0,1.66-.49,3.04-1.47,4.12-.98,1.08-2.44,1.77-4.39,2.05.97.56,1.77,1.19,2.4,1.86.63.68,1.48,1.88,2.55,3.6l2.71,4.33h-5.35l-3.24-4.83c-1.15-1.72-1.94-2.81-2.36-3.26-.42-.45-.87-.76-1.35-.92s-1.23-.25-2.25-.25h-.91v9.26h-4.48ZM315.02,28.87h3.31c2.15,0,3.49-.09,4.02-.27.53-.18.95-.49,1.25-.94.3-.44.45-1,.45-1.66,0-.75-.2-1.35-.6-1.81s-.96-.75-1.69-.87c-.36-.05-1.45-.08-3.27-.08h-3.49v5.63Z"/>
    <path class="st1" d="M332.76,41.67v-22.17h4.48v22.17h-4.48Z"/>
    <path class="st1" d="M351.82,33.51v-3.74h9.65v8.83c-.94.91-2.3,1.71-4.08,2.4-1.78.69-3.58,1.04-5.41,1.04-2.32,0-4.34-.49-6.07-1.46-1.72-.97-3.02-2.36-3.89-4.17-.87-1.81-1.3-3.78-1.3-5.91,0-2.31.48-4.36,1.45-6.16.97-1.79,2.38-3.17,4.25-4.13,1.42-.74,3.19-1.1,5.31-1.1,2.75,0,4.9.58,6.45,1.73,1.55,1.15,2.54,2.75,2.99,4.79l-4.45.83c-.31-1.09-.9-1.95-1.76-2.58-.86-.63-1.94-.95-3.23-.95-1.96,0-3.51.62-4.67,1.86-1.15,1.24-1.73,3.08-1.73,5.52,0,2.63.58,4.61,1.75,5.92,1.17,1.32,2.7,1.97,4.6,1.97.94,0,1.88-.18,2.82-.55.94-.37,1.75-.81,2.43-1.34v-2.81h-5.13Z"/>
    <path class="st1" d="M365.6,41.67v-22.17h16.44v3.75h-11.96v4.92h11.13v3.74h-11.13v6.04h12.39v3.74h-16.87Z"/>
    <path class="st1" d="M386.27,41.67v-22.17h9.42c2.37,0,4.09.2,5.17.6,1.07.4,1.93,1.11,2.58,2.12.64,1.02.97,2.18.97,3.49,0,1.66-.49,3.04-1.47,4.12-.98,1.08-2.44,1.77-4.39,2.05.97.56,1.77,1.19,2.4,1.86.63.68,1.48,1.88,2.55,3.6l2.71,4.33h-5.35l-3.24-4.83c-1.15-1.72-1.94-2.81-2.36-3.26-.42-.45-.87-.76-1.35-.92s-1.23-.25-2.25-.25h-.91v9.26h-4.48ZM390.75,28.87h3.31c2.15,0,3.49-.09,4.02-.27.53-.18.95-.49,1.25-.94.3-.44.45-1,.45-1.66,0-.75-.2-1.35-.6-1.81s-.96-.75-1.69-.87c-.36-.05-1.45-.08-3.27-.08h-3.49v5.63Z"/>
    <path class="st1" d="M428.63,41.67h-4.87l-1.94-5.04h-8.86l-1.83,5.04h-4.75l8.64-22.17h4.73l8.88,22.17ZM420.38,32.89l-3.05-8.23-3,8.23h6.05Z"/>
    <path class="st1" d="M433.69,41.67v-18.42h-6.58v-3.75h17.62v3.75h-6.56v18.42h-4.48Z"/>
    <path class="st1" d="M446.16,30.71c0-2.26.34-4.15,1.01-5.69.5-1.13,1.19-2.14,2.06-3.04s1.83-1.56,2.87-2c1.38-.58,2.97-.88,4.78-.88,3.27,0,5.88,1.01,7.84,3.04,1.96,2.03,2.94,4.85,2.94,8.46s-.97,6.38-2.92,8.4c-1.95,2.02-4.55,3.03-7.8,3.03s-5.92-1.01-7.87-3.02c-1.95-2.01-2.92-4.78-2.92-8.31ZM450.77,30.56c0,2.51.58,4.41,1.74,5.71,1.16,1.3,2.63,1.94,4.42,1.94s3.25-.64,4.39-1.93,1.72-3.21,1.72-5.79-.56-4.44-1.67-5.69c-1.11-1.25-2.59-1.88-4.44-1.88s-3.33.63-4.46,1.9c-1.13,1.27-1.69,3.17-1.69,5.73Z"/>
    <path class="st1" d="M471.18,41.67v-22.17h9.42c2.37,0,4.09.2,5.17.6,1.07.4,1.93,1.11,2.58,2.12.64,1.02.97,2.18.97,3.49,0,1.66-.49,3.04-1.47,4.12-.98,1.08-2.44,1.77-4.39,2.05.97.56,1.77,1.19,2.4,1.86.63.68,1.48,1.88,2.55,3.6l2.71,4.33h-5.35l-3.24-4.83c-1.15-1.72-1.94-2.81-2.36-3.26-.42-.45-.87-.76-1.35-.92s-1.23-.25-2.25-.25h-.91v9.26h-4.48ZM475.65,28.87h3.31c2.15,0,3.49-.09,4.02-.27.53-.18.95-.49,1.25-.94.3-.44.45-1,.45-1.66,0-.75-.2-1.35-.6-1.81s-.96-.75-1.69-.87c-.36-.05-1.45-.08-3.27-.08h-3.49v5.63Z"/>
    <path class="st1" d="M248.59,78.84v-22.17h9.42c2.37,0,4.09.2,5.17.6s1.93,1.11,2.58,2.12c.64,1.02.97,2.18.97,3.49,0,1.66-.49,3.04-1.47,4.12-.98,1.08-2.44,1.77-4.39,2.05.97.56,1.77,1.18,2.4,1.86.63.68,1.48,1.88,2.55,3.6l2.71,4.33h-5.35l-3.24-4.83c-1.15-1.72-1.94-2.81-2.36-3.26-.42-.45-.87-.76-1.35-.92-.47-.17-1.23-.25-2.25-.25h-.91v9.26h-4.48ZM253.06,66.04h3.31c2.15,0,3.49-.09,4.02-.27.53-.18.95-.49,1.25-.94.3-.44.45-1,.45-1.66,0-.75-.2-1.35-.6-1.81s-.96-.75-1.69-.87c-.36-.05-1.45-.08-3.27-.08h-3.49v5.63Z"/>
    <path class="st1" d="M270.94,78.84v-22.17h16.44v3.75h-11.96v4.92h11.13v3.74h-11.13v6.04h12.39v3.74h-16.87Z"/>
    <path class="st1" d="M291.6,78.84v-22.17h7.18c2.72,0,4.5.11,5.32.33,1.27.33,2.33,1.06,3.19,2.17.86,1.11,1.29,2.55,1.29,4.32,0,1.36-.25,2.51-.74,3.43-.5.93-1.12,1.66-1.88,2.19s-1.54.88-2.32,1.05c-1.07.21-2.62.32-4.64.32h-2.92v8.36h-4.48ZM296.08,60.42v6.29h2.45c1.76,0,2.94-.12,3.54-.35.59-.23,1.06-.59,1.4-1.09.34-.49.51-1.07.51-1.72,0-.81-.24-1.47-.71-2-.47-.52-1.07-.85-1.8-.98-.53-.1-1.61-.15-3.22-.15h-2.16Z"/>
    <path class="st1" d="M329.96,78.84h-4.87l-1.94-5.04h-8.86l-1.83,5.04h-4.75l8.64-22.17h4.73l8.88,22.17ZM321.72,70.07l-3.05-8.23-3,8.23h6.05Z"/>
    <path class="st1" d="M332.2,78.84v-22.17h4.48v22.17h-4.48Z"/>
    <path class="st1" d="M340.96,78.84v-22.17h9.42c2.37,0,4.09.2,5.17.6s1.93,1.11,2.58,2.12c.64,1.02.97,2.18.97,3.49,0,1.66-.49,3.04-1.47,4.12-.98,1.08-2.44,1.77-4.39,2.05.97.56,1.77,1.18,2.4,1.86.63.68,1.48,1.88,2.55,3.6l2.71,4.33h-5.35l-3.24-4.83c-1.15-1.72-1.94-2.81-2.36-3.26-.42-.45-.87-.76-1.35-.92-.47-.17-1.23-.25-2.25-.25h-.91v9.26h-4.48ZM345.44,66.04h3.31c2.15,0,3.49-.09,4.02-.27.53-.18.95-.49,1.25-.94.3-.44.45-1,.45-1.66,0-.75-.2-1.35-.6-1.81s-.96-.75-1.69-.87c-.36-.05-1.45-.08-3.27-.08h-3.49v5.63Z"/>
  </g>
  <rect class="st1" x="244.41" y="48.35" width="256.22" height="2.51"/>
</svg>